<svg viewBox="0 0 102 56" fill="none" xmlns="http://www.w3.org/2000/svg">
<path d="M36.1335 9.57739C34.8309 11.6298 33.7696 13.8874 32.9977 16.299H7.8635C1.92969 15.7346 0 9.57739 0 9.57739H36.1335Z" fill="#48494D"/>
<path d="M32.1189 35.1196H17.292C11.3127 34.5552 9.36816 28.3979 9.36816 28.3979H30.7577C30.9036 30.7582 31.3897 33.0159 32.1189 35.1196Z" fill="#48494D"/>
<path d="M37.4716 41.8412H25.5573C19.3999 41.3896 17.3975 36.4639 17.3975 36.4639H33.3667C34.4179 38.3931 35.7696 40.2403 37.4716 41.8412Z" fill="#48494D"/>
<path d="M31.3815 25.3501C31.3815 25.4527 31.3815 25.6067 31.3815 25.7093H12.0233C5.97995 25.1449 4.01465 18.9877 4.01465 18.9877H32.1185C31.6271 20.9888 31.3815 23.1438 31.3815 25.3501Z" fill="#48494D"/>
<path d="M69.8056 12.6659C67.5559 8.91325 64.6064 6.88879 61.5068 6.88879C59.657 6.88879 57.8573 7.62945 56.2075 9.06138C57.3074 9.99954 58.3072 11.1846 59.2071 12.6659C61.6568 16.6654 63.0066 21.9981 63.0066 27.7258C63.0066 33.4535 61.6568 38.7862 59.2071 42.7858C58.3072 44.2671 57.3074 45.5015 56.2075 46.3903C57.8573 47.8222 59.657 48.5629 61.5068 48.5629C64.5564 48.5629 67.506 46.489 69.8056 42.7858C72.2553 38.7862 73.6051 33.4535 73.6051 27.7258C73.6051 21.9981 72.2553 16.6654 69.8056 12.6659Z" fill="#FF7931"/>
<path d="M61.5606 0.167114C51.9385 0.167114 44.1631 12.5142 44.1631 27.7258C44.1631 42.9373 51.9871 55.2844 61.5606 55.2844C71.1827 55.2844 78.9581 42.9373 78.9581 27.7258C79.0067 12.5142 71.1827 0.167114 61.5606 0.167114ZM69.822 42.5916C67.6351 46.3451 64.7679 48.3701 61.755 48.3701C58.7906 48.3701 55.9234 46.2957 53.688 42.5916C51.3068 38.5912 49.9946 33.2572 49.9946 27.5282C49.9946 21.7992 51.3068 16.4652 53.688 12.4648C55.8748 8.71128 58.742 6.68636 61.755 6.68636C64.7193 6.68636 67.5865 8.76067 69.822 12.4648C72.2032 16.4652 73.5153 21.7992 73.5153 27.5282C73.5153 33.2079 72.2032 38.5912 69.822 42.5916Z" fill="#48494D"/>
<path d="M45.1304 27.7258C45.1304 12.7611 53.0219 0.56222 62.8989 0.167114C62.7462 0.167114 62.5935 0.167114 62.3898 0.167114C52.3091 0.167114 44.1631 12.5142 44.1631 27.7258C44.1631 42.9373 52.36 55.2844 62.3898 55.2844C62.5425 55.2844 62.6953 55.2844 62.8989 55.2844C53.0219 54.8893 45.1304 42.6904 45.1304 27.7258Z" fill="#FF7931"/>
<path d="M61.3425 49.7076H60.9063C60.8578 49.7076 60.7609 49.7076 60.7124 49.7076L60.5185 49.6576L60.3247 49.6077H60.2277C60.1792 49.6077 60.1792 49.6077 60.1308 49.6077L59.6946 49.5079C59.6461 49.5079 59.5491 49.458 59.5007 49.458L59.3068 49.4081L59.1129 49.3582C59.0645 49.3582 58.9675 49.3083 58.9191 49.2584L58.5313 49.1087L58.1436 48.9091C58.0951 48.8592 57.9981 48.8592 57.9497 48.8093L57.7558 48.7094C57.6589 48.6595 57.5135 48.5597 57.4165 48.5098L57.0772 48.2603L56.8834 48.1605L56.738 48.0108L56.3987 47.7612C56.3017 47.6614 56.2048 47.5616 56.1079 47.4618C55.914 47.2622 55.7201 47.0626 55.5262 46.8629C54.7507 46.0645 54.0722 45.1662 53.4906 44.218C52.9089 43.2698 52.4242 42.2717 51.988 41.2736C51.5518 40.2255 51.2125 39.1775 50.8732 38.1295C50.7278 37.5806 50.5824 37.0815 50.437 36.5326L50.2431 35.7341C50.1947 35.4845 50.1462 35.1851 50.0977 34.9356C49.9039 33.8377 49.7585 32.7397 49.6615 31.6418C49.5646 30.5439 49.5161 29.446 49.5161 28.2982C49.5161 27.2003 49.5646 26.1023 49.6615 24.9545C49.7585 23.8566 49.9039 22.7587 50.0977 21.6608C50.1462 21.4112 50.1947 21.1118 50.2431 20.8623L50.437 20.0638C50.5824 19.5148 50.6794 18.9659 50.8732 18.4668C51.1641 17.4188 51.5518 16.3708 51.988 15.3228C52.4242 14.3247 52.9089 13.3266 53.4906 12.3784C54.0722 11.4302 54.7507 10.5319 55.5262 9.7334C55.7201 9.53378 55.914 9.33415 56.1079 9.13453C56.2048 9.03472 56.3017 8.93491 56.3987 8.8351L56.738 8.58558L56.8834 8.43586L57.0772 8.33605L57.4165 8.08652C57.5135 8.03662 57.6589 7.93681 57.7558 7.8869L57.9497 7.78709C57.9981 7.73719 58.0951 7.73718 58.1436 7.68728L58.5313 7.48766L58.9191 7.33794C58.9675 7.28804 59.0645 7.28804 59.1129 7.23813L59.3068 7.18823L59.5007 7.13832C59.5491 7.13832 59.6461 7.08842 59.6946 7.08842L60.1308 6.98861C60.1792 6.98861 60.1792 6.98861 60.2277 6.98861H60.3247L60.5185 6.9387L60.7124 6.88879C60.7609 6.88879 60.8578 6.88879 60.9063 6.88879H61.3425H61.7787C61.8272 6.88879 61.9241 6.88879 61.9726 6.88879L62.1665 6.9387L62.3603 6.98861H62.4573C62.5057 6.98861 62.5057 6.98861 62.5542 6.98861L62.9904 7.08842C63.0389 7.08842 63.1358 7.13832 63.1843 7.13832L63.3782 7.18823L63.5721 7.23813C63.6205 7.23813 63.7175 7.28804 63.7659 7.28804L64.1537 7.43775L64.5414 7.63737C64.5899 7.68728 64.6868 7.68728 64.7353 7.73719L64.9292 7.837C65.0746 7.8869 65.1715 7.98671 65.3169 8.03662L65.6562 8.28614L65.8501 8.38595L65.9955 8.53567L66.3348 8.7852C66.4317 8.88501 66.5287 8.98482 66.6741 9.08463C66.9164 9.28425 67.1103 9.48387 67.3042 9.68349C68.1281 10.482 68.8067 11.3803 69.3883 12.3285C70.0184 13.2767 70.5516 14.2748 70.9878 15.2729C71.424 16.3209 71.8118 17.3689 72.151 18.4169C72.4903 19.5148 72.7327 20.5629 72.975 21.7107C73.1689 22.8086 73.3628 23.9065 73.4597 25.0543C73.5566 26.1522 73.6051 27.3001 73.6051 28.398C73.6051 29.4959 73.5566 30.6437 73.4597 31.7416C73.3628 32.8396 73.2174 33.9874 72.975 35.0853C72.5388 37.2811 71.9087 39.477 70.9878 41.5231C70.5516 42.5711 69.9699 43.5193 69.3883 44.4675C68.7582 45.4157 68.0797 46.314 67.3042 47.1125C67.1103 47.3121 66.9164 47.5117 66.6741 47.7113C66.5771 47.8111 66.4802 47.911 66.3348 48.0108L65.9955 48.2603L65.8501 48.41L65.6562 48.5098L65.3169 48.7594C65.1715 48.8093 65.0746 48.9091 64.9292 48.959L64.7353 49.0588C64.6868 49.1087 64.5899 49.1087 64.5414 49.1586L64.1537 49.3582L63.7659 49.5079C63.7175 49.5079 63.6205 49.5578 63.5721 49.5578L63.3782 49.6077L63.1843 49.6576C63.1358 49.6576 63.0389 49.7076 62.9904 49.7076L62.5542 49.8074C62.5057 49.8074 62.5057 49.8074 62.4573 49.8074H62.3603L62.1665 49.8573L61.9726 49.9072C61.9241 49.9072 61.8272 49.9072 61.7787 49.9072L61.3425 49.7076ZM61.3425 48.8592H61.7302C61.7787 48.8592 61.8757 48.8592 61.9241 48.8592L62.118 48.8093L62.3119 48.7594H62.4088C62.4573 48.7594 62.4573 48.7594 62.5058 48.7594L62.8935 48.6595C62.942 48.6595 62.9904 48.6096 63.0874 48.6096L63.2812 48.5597L63.4751 48.5098C63.5236 48.5098 63.5721 48.4599 63.669 48.4599L64.0083 48.3102L64.3476 48.1605C64.396 48.1106 64.4445 48.1106 64.5414 48.0607L64.6868 47.9609C64.7838 47.911 64.9292 47.8112 65.0261 47.7612L65.3654 47.5616L65.5108 47.4618L65.6562 47.362L65.947 47.1125C66.044 47.0127 66.1409 46.9628 66.2378 46.8629C66.4317 46.7132 66.6256 46.5136 66.8195 46.314C67.5465 45.5654 68.1766 44.717 68.7098 43.8187C69.2429 42.9204 69.7276 41.9722 70.1638 40.9741C70.6 39.976 70.9393 38.9779 71.2301 37.9299C71.3755 37.4308 71.5209 36.8819 71.6179 36.3828L71.8118 35.5844C71.8602 35.3348 71.9087 35.0354 71.9572 34.7859C72.151 33.7379 72.2964 32.6399 72.3934 31.5919C72.4903 30.494 72.5388 29.446 72.5388 28.3481C72.5388 27.2502 72.4903 26.2022 72.3934 25.1042C72.2964 24.0063 72.151 22.9583 71.9572 21.9103C71.9087 21.6608 71.8602 21.3613 71.8118 21.1118L71.6179 20.3133C71.4725 19.7644 71.3755 19.2653 71.2301 18.7663C70.9393 17.7182 70.6 16.7201 70.1638 15.722C69.7276 14.7239 69.2429 13.7757 68.7098 12.8774C68.1766 11.9791 67.5465 11.1307 66.8195 10.3822C66.6256 10.1825 66.4802 9.98292 66.2378 9.83321C66.1409 9.7334 66.044 9.63359 65.947 9.58368L65.6562 9.33416L65.5108 9.23435L65.3654 9.13453L65.0261 8.93491C64.9292 8.88501 64.7838 8.7852 64.6868 8.73529L64.5414 8.63548C64.493 8.58557 64.4445 8.58558 64.3476 8.53567L64.0083 8.38595L63.669 8.23624C63.6205 8.23624 63.5721 8.18633 63.4751 8.18633L63.2812 8.13643L63.0874 8.08652C63.0389 8.08652 62.9904 8.03662 62.8935 8.03662L62.5058 7.9368C62.4573 7.9368 62.4573 7.9368 62.4088 7.9368H62.3119L62.118 7.8869L61.9241 7.837C61.8757 7.837 61.7787 7.837 61.7302 7.837H61.3425H60.9547C60.9063 7.837 60.8093 7.837 60.7609 7.837H60.567H60.3731H60.2762C60.2277 7.837 60.2277 7.837 60.1792 7.837L59.7915 7.9368C59.743 7.9368 59.6461 7.98671 59.5976 7.98671L59.4037 8.03662L59.2099 8.08652C59.1614 8.08652 59.1129 8.13643 59.016 8.13643L58.6767 8.28614L58.3374 8.43586C58.289 8.48576 58.2405 8.48577 58.1436 8.53567L57.9982 8.63548C57.9012 8.68539 57.7558 8.7852 57.6589 8.8351L57.3196 9.03472L57.1742 9.13453L57.0288 9.23435L56.738 9.48387C56.641 9.58368 56.5441 9.63359 56.4472 9.7334C56.2533 9.88312 56.0594 10.0827 55.8655 10.2824C55.09 11.0309 54.4599 11.8793 53.8783 12.7776C53.2967 13.6759 52.7635 14.6241 52.3273 15.6222C51.8911 16.6203 51.5033 17.6184 51.2125 18.6664C50.8732 19.7145 50.6309 20.7625 50.437 21.8604C50.2431 22.9583 50.0977 24.0063 50.0008 25.1042C49.9039 26.2022 49.8554 27.3001 49.8554 28.398C49.8554 29.4959 49.9039 30.5938 50.0008 31.6917C50.0977 32.7897 50.2431 33.8876 50.437 34.9356C50.8248 37.0815 51.4549 39.1775 52.3758 41.1737C52.812 42.1719 53.3451 43.1201 53.9268 44.0183C54.5084 44.9166 55.187 45.765 55.914 46.5136C56.1079 46.7132 56.3017 46.863 56.4956 47.0626C56.5926 47.1624 56.6895 47.2123 56.7864 47.3121L57.0772 47.5616L57.2226 47.6614L57.3681 47.7612L57.7073 47.9609C57.8043 48.0108 57.9497 48.1106 58.0466 48.1605L58.192 48.2603C58.2405 48.3102 58.289 48.3102 58.3859 48.3601L58.7252 48.5098L59.0645 48.6595C59.1129 48.6595 59.1614 48.7094 59.2583 48.7094L59.4522 48.7594L59.6461 48.8093C59.6946 48.8093 59.743 48.8592 59.84 48.8592L60.2277 48.959C60.2762 48.959 60.2762 48.959 60.3247 48.959H60.4216H60.6155H60.8093C60.8578 48.959 60.9547 48.959 61.0032 48.959L61.3425 48.8592Z" fill="white"/>
<path d="M60.2225 55.2844H42.5616C33.0851 55.2844 25.4272 42.9373 25.4272 27.7258C25.4272 12.5142 33.1329 0.167114 42.5616 0.167114H60.2225C50.7459 0.167114 43.0881 12.5142 43.0881 27.7258C43.0881 42.9373 50.7459 55.2844 60.2225 55.2844Z" fill="#FF7931"/>
<path d="M45.0713 40.6524C44.5933 39.2188 44.2109 37.6864 43.8764 36.154C43.6374 34.8193 43.3984 33.4847 43.255 32.1005C43.1116 30.7659 43.0638 29.4312 43.0638 28.0471C43.0638 27.9482 43.0638 27.8493 43.0638 27.7505C43.0638 26.4158 43.1116 25.0811 43.255 23.7464C43.3984 22.0163 43.6852 20.385 44.0198 18.7538C45.358 12.4264 48.1302 7.1371 51.6671 3.82512C52.5752 2.98477 53.5789 2.24328 54.5826 1.69952C55.3951 1.25463 56.2554 0.859171 57.1158 0.612008C57.9283 0.364845 58.7886 0.216547 59.6489 0.167114C59.8401 0.167114 60.0313 0.167114 60.2225 0.167114H42.5859C42.3947 0.167114 42.2035 0.167114 42.0123 0.167114C41.152 0.216547 40.3395 0.364845 39.4792 0.612008C38.6188 0.859171 37.7585 1.25463 36.946 1.69952C35.9423 2.29271 34.9386 2.98477 34.0305 3.82512C30.4936 7.1371 27.7214 12.4264 26.3832 18.7538C26.0486 20.3356 25.8096 22.0163 25.6184 23.7464C25.5228 25.0317 25.4272 26.3664 25.4272 27.7505C25.4272 27.8493 25.4272 27.9482 25.4272 28.0471C25.4272 29.4312 25.5228 30.7659 25.6184 32.1005C25.7618 33.4847 25.953 34.8688 26.2398 36.154C26.5743 37.7359 26.9567 39.2188 27.4347 40.6524C30.3024 49.3525 35.9901 55.2844 42.5381 55.2844H60.1747C53.6267 55.2844 47.939 49.3525 45.0713 40.6524Z" fill="#FF7931"/>
<path d="M61.4282 55.7035C61.0819 55.7035 60.686 55.7035 60.3396 55.6538C57.7172 55.5045 55.0947 55.604 52.4722 55.5542C52.0269 55.5045 51.631 55.4049 51.2352 55.2557C54.0556 55.3552 56.1833 55.405 59.1026 55.4547C58.7563 55.405 58.4099 55.3054 58.0635 55.2059C57.8656 55.1561 57.5192 55.2059 57.3213 55.2059C54.2535 55.1064 51.3342 55.0068 50.2456 54.9571C49.8497 54.8078 49.4539 54.6087 49.058 54.4097C51.8784 54.559 54.0061 54.6585 56.876 54.758C56.5296 54.6087 56.1833 54.4594 55.8864 54.2604C55.6885 54.2106 55.3421 54.2106 55.1442 54.2106C52.0764 54.0613 49.058 53.8623 48.1179 53.8125C47.7221 53.5637 47.3757 53.3149 46.9799 53.066C49.7508 53.2651 51.9279 53.4144 54.7483 53.5637C54.4514 53.3646 54.1051 53.1158 53.8082 52.9167C53.6103 52.8172 53.3134 52.867 53.066 52.867C50.0477 52.6679 47.0293 52.4191 46.0397 52.3693C45.6934 52.0707 45.347 51.7224 45.0006 51.4238C47.7716 51.6726 49.8497 51.8219 52.7196 52.0708C52.4227 51.8219 52.1258 51.5233 51.829 51.2248C51.631 51.1252 51.3342 51.175 51.0868 51.175C48.0684 50.9262 45.2975 50.6276 44.11 50.5281C43.7636 50.1797 43.4667 49.7816 43.1698 49.3835C46.2871 49.6821 48.5138 49.9309 50.8393 50.1299C50.5425 49.8314 50.2951 49.483 50.0477 49.1347C46.8809 48.7863 45.0006 48.5873 42.4276 48.3384C42.1307 47.8906 41.8339 47.4427 41.5865 46.9948C44.7037 47.3432 46.8809 47.592 49.157 47.8906C48.9096 47.5422 48.6622 47.1441 48.4643 46.746C45.347 46.3976 43.4172 46.1488 40.8937 45.8005C40.6463 45.3028 40.3989 44.8052 40.1515 44.3075C42.774 44.6559 45.0006 44.9545 47.6726 45.3028C47.4747 44.9047 47.2767 44.4568 47.0788 44.009C44.011 43.6108 42.1307 43.362 39.6072 42.9639C39.4093 42.4165 39.1619 41.8691 38.964 41.3217C41.5865 41.7198 43.7141 42.0184 46.3861 42.4165C46.1882 41.9686 46.0397 41.471 45.8913 41.0231C42.873 40.5752 40.8937 40.2766 38.5187 39.9283C38.3207 39.3311 38.1723 38.7837 38.0239 38.1865C40.6958 38.6344 42.6256 38.933 45.347 39.3311C45.1986 38.8335 45.0996 38.3358 44.9511 37.8382C42.3782 37.4401 40.3494 37.0917 37.628 36.6439C37.4796 36.0467 37.3806 35.3997 37.2816 34.7528C40.102 35.2505 41.6359 35.4993 44.5553 35.9969C44.4563 35.4495 44.3574 34.9519 44.3079 34.4045C41.3391 33.9068 39.6072 33.6082 37.0837 33.1604C36.9848 32.5134 36.9353 31.8665 36.8858 31.2196C39.9536 31.767 41.2896 32.0158 44.011 32.5134C43.9615 31.966 43.9121 31.4186 43.8626 30.8712C40.8937 30.3238 39.2114 30.0252 36.7868 29.5773C36.7868 29.0797 36.7868 28.6318 36.7868 28.1342C36.7868 27.9351 36.7868 27.7361 36.7868 27.537C42.675 28.6318 42.675 28.6318 43.8131 28.8806C43.8131 28.6318 43.8131 28.383 43.8131 28.1342C43.8131 27.7858 43.8131 27.4872 43.8131 27.1389C42.3782 26.8901 38.4197 26.1436 36.8363 25.845C36.8858 25.1981 36.9353 24.5014 36.9848 23.8545C39.7062 24.3521 41.7349 24.7502 43.9121 25.1483C43.9615 24.6009 44.011 24.0535 44.0605 23.5061C41.0917 22.9587 39.7557 22.7099 37.1827 22.262C37.2816 21.6151 37.3806 20.9681 37.4796 20.371C37.529 20.1221 37.5785 19.8236 37.628 19.5747C37.5785 19.8236 37.529 20.0724 37.4796 20.371C40.4484 20.9184 41.3885 21.0677 44.3079 21.6151C44.4069 21.0677 44.5058 20.57 44.6048 20.0226C42.1802 19.5747 40.2505 19.2264 37.8259 18.8283C37.9744 18.2311 38.1228 17.6339 38.2713 17.0368C41.0422 17.5344 42.3782 17.7335 45.0006 18.1813C45.1491 17.6837 45.248 17.1861 45.3965 16.6884C43.1698 16.2903 40.9432 15.942 38.7166 15.5438C38.9145 14.9964 39.1124 14.3993 39.3104 13.8519C42.0318 14.2997 43.7141 14.5486 45.9408 14.9467C46.0892 14.4988 46.2871 14.0012 46.4356 13.5533C43.5657 13.1054 41.4875 12.757 39.8052 12.5082C40.0526 11.9608 40.2505 11.4632 40.5474 10.9655C43.2688 11.3636 44.7037 11.6125 47.1283 11.9608C47.3262 11.5129 47.5241 11.1148 47.7715 10.667C45.0501 10.2688 43.3678 10.02 41.2401 9.72143C41.4875 9.22379 41.7844 8.77591 42.0813 8.32804C42.1802 8.12898 42.3287 7.97969 42.4276 7.78063C42.2792 7.97969 42.1802 8.12898 42.0813 8.32804C44.7532 8.67638 46.3366 8.9252 48.5632 9.22379C48.8106 8.82568 49.058 8.47733 49.256 8.07921C46.584 7.73087 44.8027 7.48204 42.774 7.23322C43.0709 6.83511 43.3678 6.437 43.7141 6.03888C46.3366 6.33747 47.9695 6.53653 50.1466 6.78535C50.394 6.437 50.6909 6.08865 50.9383 5.79006C48.3158 5.49148 46.485 5.29242 44.5553 5.09336C44.9017 4.74501 45.248 4.39666 45.5944 4.09808C48.2169 4.3469 49.8497 4.54596 51.9774 4.74501C52.2743 4.44643 52.5712 4.19761 52.8681 3.89902C50.2456 3.6502 48.5138 3.50091 46.5345 3.30185C46.8809 3.00327 47.2767 2.75444 47.6231 2.50562C50.1961 2.70468 51.7795 2.85397 53.9566 3.00327C54.2535 2.75444 54.5999 2.55539 54.8968 2.35633C52.3238 2.15728 50.6414 2.05775 48.6127 1.90845C49.0086 1.7094 49.4044 1.51034 49.8003 1.31129C52.3733 1.46058 53.9566 1.56011 56.0843 1.65963C56.4307 1.51034 56.7276 1.31128 57.0739 1.21176C54.5009 1.06246 52.8186 1.0127 50.8393 0.913171C51.2352 0.763879 51.6805 0.664352 52.0764 0.564823C54.6494 0.614588 56.2327 0.714113 58.3109 0.763877C58.6573 0.664349 59.0037 0.56482 59.35 0.515056C56.777 0.465292 55.1442 0.41553 53.1155 0.365766C53.5608 0.316002 54.0556 0.266235 54.5009 0.266235H52.967C43.1698 0.266235 35.2529 12.7073 35.2529 28.0347C35.2529 43.362 43.2193 55.8031 52.967 55.8031H54.5009L53.6598 55.7533C56.777 55.7035 58.9542 55.7035 61.4282 55.7035Z" fill="#48494D"/>
<path d="M33.6202 27.9355C33.6202 12.6082 41.5866 0.167114 51.3343 0.167114H49.8004C49.3056 0.167114 48.8108 0.216877 48.3654 0.266641C45.1492 0.316405 42.9721 0.366171 40.9433 0.415935C40.597 0.465699 40.2506 0.565228 39.9043 0.664756C43.4174 0.565228 45.9409 0.515463 47.2769 0.465699C46.881 0.565227 46.4357 0.664758 46.0399 0.81405C42.8236 0.913579 40.5475 1.01311 38.6672 1.11263C38.3209 1.26193 37.9745 1.41122 37.6776 1.56051C40.7454 1.41122 43.0215 1.31169 45.0008 1.21216C44.6049 1.41122 44.2091 1.56051 43.8132 1.80933C40.6465 1.95863 38.3703 2.10792 36.4901 2.20745C36.1932 2.4065 35.8468 2.60556 35.55 2.85438C38.7662 2.65533 40.8444 2.50603 42.8731 2.35674C42.4773 2.60556 42.1309 2.85438 41.7845 3.15297C38.6178 3.40179 36.4406 3.55108 34.5109 3.70037C34.214 3.94919 33.9171 4.24778 33.6202 4.54637C36.787 4.24778 38.9641 4.09849 40.8939 3.94919C40.5475 4.24778 40.2011 4.59613 39.8548 4.94448C36.7375 5.24306 34.4614 5.44212 32.6306 5.64118C32.3337 5.93976 32.0863 6.28811 31.8389 6.63646C35.0057 6.28811 37.1333 6.08906 39.0136 5.89C38.7167 6.28811 38.3704 6.68623 38.0735 7.08434C34.9562 7.43269 32.9275 7.63175 30.8988 7.88057C30.6514 8.22892 30.404 8.62703 30.206 9.02514C33.1749 8.6768 35.4015 8.42797 37.3313 8.17915C37.0344 8.62703 36.787 9.07491 36.4901 9.57255C33.3728 9.97066 31.5915 10.1697 29.4143 10.4683C29.2164 10.8664 28.969 11.3143 28.7711 11.7622C31.8884 11.3641 33.8676 11.0655 35.8468 10.8167C35.5994 11.3143 35.352 11.8119 35.1541 12.3593C32.0863 12.7575 30.0081 13.056 28.1278 13.3546C27.9299 13.8025 27.7815 14.2504 27.633 14.748C30.5524 14.3002 32.8285 14.0016 34.6098 13.7527C34.4119 14.3002 34.214 14.8476 34.016 15.4447C30.7503 15.9424 28.2763 16.3405 27.0888 16.4898C26.9403 16.9874 26.7919 17.4851 26.6929 17.9827C29.6123 17.5348 31.7894 17.1865 33.6202 16.8879C33.4718 17.4851 33.3233 18.0822 33.1749 18.6794C30.206 19.177 28.1773 19.4756 26.2971 19.824C26.1981 20.3216 26.0991 20.869 26.0002 21.4164C29.2659 20.869 31.641 20.4709 32.8285 20.2719C32.7296 20.9188 32.6306 21.516 32.5316 22.1629C29.6123 22.6605 27.732 23.0089 25.7528 23.3572C25.7033 23.9046 25.6538 24.452 25.6043 24.9995C28.8206 24.4023 31.4431 23.9544 32.3337 23.8051C32.2842 24.452 32.2347 25.099 32.1853 25.7957C29.068 26.3929 26.5939 26.8407 25.5054 27.0398C25.5054 27.3881 25.5054 27.6867 25.5054 28.0351C25.5054 28.2839 25.5054 28.5327 25.5054 28.7815C27.732 28.3834 29.9092 27.9355 32.1358 27.5374C32.1358 27.6867 32.1358 27.8858 32.1358 28.0351C32.1358 28.5327 32.1358 29.0801 32.1853 29.5778C28.969 30.1749 26.4455 30.6726 25.6043 30.8219C25.6538 31.3693 25.7033 31.9167 25.7528 32.4641C27.732 32.1157 29.9092 31.7176 32.2842 31.2697C32.3337 31.9167 32.3832 32.5636 32.4822 33.2105C31.2946 33.4096 28.9195 33.8575 26.0002 34.4049C26.0991 34.9523 26.1486 35.4499 26.2476 35.9973C29.2164 35.4499 31.2946 35.1016 32.6801 34.8528C32.779 35.4997 32.878 36.0969 33.0264 36.7438C29.9586 37.2912 27.4846 37.7391 26.6434 37.8386C26.7424 38.3363 26.8908 38.8339 27.0393 39.3315C29.9586 38.8339 32.0863 38.4856 33.3728 38.2367C33.5212 38.8339 33.6697 39.4311 33.8676 39.9785C31.0472 40.4264 29.5628 40.6752 27.5836 41.0235C27.732 41.5212 27.9299 41.969 28.0784 42.4169C30.9977 41.969 32.977 41.6207 34.3129 41.4216C34.5109 41.969 34.7088 42.5165 34.9562 43.0639C32.2347 43.5117 30.404 43.7606 28.7711 44.0094C28.969 44.4573 29.1669 44.8554 29.3649 45.3032C32.2347 44.8554 34.3129 44.5568 35.55 44.3577C35.7974 44.8554 36.0448 45.353 36.2922 45.8507C36.3911 46.0497 36.4901 46.2488 36.6385 46.4478C36.5396 46.2488 36.3911 46.0497 36.2922 45.8507C33.5707 46.2488 31.6905 46.4976 30.1566 46.7464C30.404 47.1445 30.6019 47.5426 30.8493 47.891C33.7192 47.4929 35.7974 47.2441 36.9354 47.045C37.2323 47.4929 37.4797 47.9408 37.7766 48.3886C35.2531 48.737 33.3728 48.936 31.6905 49.1351C31.9379 49.4834 32.2347 49.8318 32.4822 50.1304C35.1046 49.8318 36.8859 49.6327 38.5188 49.4337C38.8157 49.8318 39.162 50.2299 39.4589 50.5783C36.8364 50.8768 35.1046 51.0759 33.4718 51.2252C33.7686 51.5238 34.0655 51.8224 34.3624 52.0712C36.9354 51.8224 38.8157 51.6233 40.3496 51.474C40.6959 51.8224 41.0423 52.1209 41.3887 52.4195C41.4876 52.4693 41.5371 52.5688 41.6361 52.6186C41.5371 52.5688 41.4876 52.4693 41.3887 52.4195C38.7662 52.6684 37.0344 52.8176 35.451 52.9669C35.7479 53.2158 36.0942 53.4148 36.3911 53.6139C38.9641 53.4148 40.7949 53.2655 42.3288 53.1162C42.6752 53.365 43.071 53.6139 43.4669 53.8627C40.6465 54.0617 38.6178 54.211 37.5787 54.2608C37.925 54.4101 38.2219 54.6092 38.5683 54.7584C41.1413 54.6092 42.9721 54.5096 44.4565 54.4101C44.8523 54.6092 45.2482 54.7585 45.644 54.9575C42.8731 55.1068 40.7949 55.1566 39.7558 55.2063C40.1022 55.3059 40.4485 55.4054 40.7949 55.4552C43.3184 55.4054 45.0997 55.3059 46.6336 55.2561C47.0295 55.3556 47.4748 55.4552 47.8706 55.5547C45.0997 55.6044 43.1205 55.6542 42.0319 55.6542C42.3783 55.704 42.7741 55.704 43.1205 55.704H43.17C45.8914 55.704 47.8212 55.704 48.9592 55.6542C49.2066 55.6542 49.5035 55.704 49.7509 55.704H51.2848C41.5371 55.704 33.6202 43.2629 33.6202 27.9355Z" fill="#48494D"/>
<path d="M88.2274 17.8433C92.3414 15.8634 93.8283 11.6067 93.8779 11.3593L94.4727 9.57739H66.9141L68.401 11.7057C69.6898 13.5866 70.7306 15.6655 71.4246 17.8433L71.6724 18.6352L71.8707 19.5262C72.3167 21.407 72.5646 23.3869 72.5646 25.3173C72.5646 25.4163 72.5646 25.5648 72.5646 25.6637V26.4557L72.515 27.2971C72.3663 29.376 71.8706 31.4548 71.1767 33.4347L70.9289 34.1276L70.6315 34.7711C69.6898 36.9984 71.3254 39.0773 69.7393 40.9087L67.9054 43.1855H73.1594H73.2089C80.0986 42.5915 82.3786 36.058 82.4777 35.761L82.6264 35.2661H82.676C89.5657 34.6721 91.8457 28.1386 91.9448 27.8416L92.3414 26.7032C97.8432 25.2678 99.6771 19.8232 99.7763 19.5757L100.371 17.7938H88.2274V17.8433Z" fill="white"/>
<path d="M65.5757 9.57739C66.8782 11.6298 67.9396 13.8874 68.7114 16.299H93.8457C99.7795 15.7346 101.709 9.57739 101.709 9.57739H65.5757Z" fill="#FF7931"/>
<path d="M69.5903 35.1196H84.4172C90.3966 34.5552 92.3411 28.3979 92.3411 28.3979H70.9515C70.757 30.7582 70.3195 33.0159 69.5903 35.1196Z" fill="#FF7931"/>
<path d="M65.5757 41.8412H77.49C83.6474 41.3896 85.6498 36.4639 85.6498 36.4639H69.6806C68.6294 38.3931 67.2277 40.2403 65.5757 41.8412Z" fill="#FF7931"/>
<path d="M70.2782 25.3501C70.2782 25.4527 70.2782 25.6067 70.2782 25.7093H89.6855C95.7288 25.1449 97.6942 18.9877 97.6942 18.9877H69.5903C70.0325 20.9888 70.2782 23.1438 70.2782 25.3501Z" fill="#FF7931"/>
</svg>
