<svg fill="none" viewBox="0 0 14 17">
  <defs/>
  <path  d="M1.98 8.424V.373c2.616 0 4.984-.105 7.353.035 2.474.14 4.348 2.45 4.277 4.97-.07 2.45-1.98 4.586-4.454 4.691-1.768.105-3.5.035-5.338.035l-1.839-1.68zm1.838-6.44v6.51c.46.035 1.838 0 2.192 0 .99 0 2.368.035 3.146-.07 1.662-.175 2.864-1.61 2.828-3.22-.035-1.68-1.308-3.116-3.04-3.22-1.662-.07-3.359 0-5.126 0z"/>
  <path  d="M7.176 10.49H3.818v-.7h1.697c1.237 0 2.44.034 3.641-.036 2.263-.14 4.066-2.03 4.1-4.375.072-2.416-1.731-4.48-3.959-4.62C7.671.652 6.045.688 4.348.722c-.672 0-1.343.035-2.015.035V8.46h-.707V.058h.354c.813 0 1.59 0 2.368-.035a79.637 79.637 0 015.02.035c2.616.14 4.667 2.555 4.631 5.32-.07 2.696-2.156 4.901-4.772 5.041-.707.07-1.379.07-2.05.07zm0-1.646H3.782l-.318-.035v-7.21h1.98c1.202 0 2.369-.036 3.535.034 1.874.105 3.359 1.68 3.394 3.57.036 1.82-1.379 3.396-3.146 3.571-.46.07-1.167.07-2.05.07zm-1.308-.7h.142c1.484.035 2.51 0 3.11-.035 1.415-.14 2.546-1.4 2.51-2.87 0-1.54-1.201-2.8-2.721-2.87-1.132-.07-2.263-.036-3.465-.036H4.171v5.811h1.697z"/>
  <path  d="M4.454 8.494H.39v1.645h4.065V8.494z"/>
  <path  d="M4.773 10.454H0V8.11h4.773v2.345zm-4.03-.7H4.1V8.81H.742v.945zM7.742 11.75H.389v1.645h7.353v-1.646z"/>
  <path  d="M8.096 13.745H.036v-2.346h8.06v2.346zm-7.354-.7h6.646V12.1H.742v.945z"/>
  <path  d="M3.818 7.479H1.979v9.171h1.839V7.479z"/>
  <path  d="M4.171 17H1.626V7.13h2.545V17zm-1.838-.7h1.131V7.829H2.333V16.3z"/>
</svg>
